<?xml version="1.0" encoding="UTF-8"?>
<svg xmlns="http://www.w3.org/2000/svg" xmlns:xlink="http://www.w3.org/1999/xlink" width="80px" height="px" viewBox="0 0 80 80" version="1.1">
<g id="surface1">
<path style=" stroke:none;fill-rule:nonzero;fill:rgb(0%,0%,0%);fill-opacity:1;" d="M 32.769531 56.378906 L 34.226562 56.425781 C 34.261719 56.429688 34.292969 56.453125 34.304688 56.484375 L 34.9375 58.382812 C 35.066406 58.785156 35.40625 59.085938 35.820312 59.171875 C 36.234375 59.257812 36.664062 59.113281 36.941406 58.796875 C 37.222656 58.480469 37.3125 58.039062 37.175781 57.636719 L 36.542969 55.738281 C 36.222656 54.773438 35.320312 54.101562 34.300781 54.066406 C 32.863281 54.019531 32.777344 54.066406 32.765625 53.945312 L 31.871094 44.847656 C 31.753906 43.628906 30.75 42.601562 29.304688 42.644531 C 29.21875 42.644531 28.992188 42.652344 28.898438 42.617188 C 28.886719 42.589844 27.800781 39.015625 27.792969 38.992188 C 27.558594 38.226562 26.96875 37.625 26.214844 37.378906 C 19.96875 35.335938 21.300781 35.902344 19.0625 34.535156 L 19.058594 34.535156 C 19.035156 34.515625 19.019531 34.488281 19.019531 34.457031 L 19.074219 33.503906 C 19.183594 31.675781 17.316406 30.382812 15.644531 31.125 C 12.648438 32.453125 11.351562 33.046875 11 33.167969 C 8.980469 33.039062 8.933594 33.085938 8.929688 32.960938 L 8.917969 32.621094 C 8.886719 31.839844 8.488281 31.117188 7.839844 30.675781 C 7.191406 30.242188 6.371094 30.140625 5.636719 30.40625 C 5.601562 30.417969 5.566406 30.410156 5.542969 30.382812 L 2.382812 26.804688 C 2.363281 26.78125 2.355469 26.75 2.367188 26.722656 L 3.542969 23.433594 C 3.550781 23.402344 3.574219 23.382812 3.605469 23.378906 L 8.207031 22.472656 C 9.269531 22.265625 10.058594 21.398438 10.167969 20.320312 C 11.011719 12.019531 11.074219 14.320312 10.121094 9.964844 C 10.089844 9.820312 10.097656 9.878906 13.28125 9.394531 C 13.3125 9.390625 13.339844 9.402344 13.359375 9.421875 L 15.226562 11.566406 C 15.984375 12.4375 17.265625 12.660156 18.273438 12.089844 L 20.808594 10.660156 C 21.820312 10.089844 22.292969 8.875 21.933594 7.773438 L 21.152344 5.375 C 21.105469 5.230469 21.164062 5.273438 27.378906 4.238281 C 27.488281 4.21875 27.359375 3.953125 29.210938 9.511719 C 29.605469 10.714844 30.859375 11.414062 32.089844 11.121094 L 35.398438 10.347656 C 36.617188 10.0625 37.167969 9.015625 37.269531 8.324219 C 37.328125 8.230469 37.179688 8.234375 40.875 9.25 C 41.859375 9.519531 42.921875 9.144531 43.515625 8.3125 L 44.410156 7.054688 C 44.429688 7.03125 44.460938 7.015625 44.492188 7.019531 C 44.523438 7.023438 44.546875 7.046875 44.558594 7.074219 C 46.625 12.480469 46.550781 12.753906 47.625 13.289062 L 51.074219 15.015625 C 51.351562 15.15625 51.679688 15.179688 51.976562 15.078125 C 52.273438 14.980469 52.519531 14.769531 52.65625 14.488281 C 52.949219 13.902344 52.714844 13.195312 52.128906 12.902344 L 48.679688 11.175781 C 48.460938 10.785156 47.90625 9.21875 46.765625 6.230469 C 46.070312 4.410156 43.621094 4.097656 42.488281 5.683594 L 41.59375 6.941406 C 41.570312 6.96875 41.535156 6.980469 41.5 6.972656 L 37.992188 6.007812 C 37.335938 5.828125 36.636719 5.929688 36.058594 6.285156 C 35.390625 6.695312 35.132812 7.226562 34.945312 7.886719 C 34.945312 7.945312 34.921875 8.035156 34.863281 8.046875 C 31.398438 8.859375 31.492188 8.886719 31.453125 8.765625 L 29.710938 3.546875 C 29.328125 2.398438 28.183594 1.707031 26.988281 1.910156 L 20.832031 2.933594 C 19.355469 3.179688 18.445312 4.683594 18.90625 6.105469 L 19.6875 8.503906 C 19.722656 8.609375 19.765625 8.539062 17.113281 10.035156 C 17.078125 10.054688 17.035156 10.046875 17.007812 10.015625 L 15.140625 7.871094 C 14.589844 7.238281 13.753906 6.929688 12.929688 7.058594 L 9.835938 7.53125 C 9.167969 7.632812 8.566406 8.007812 8.1875 8.5625 C 7.804688 9.117188 7.667969 9.816406 7.8125 10.472656 L 8.480469 13.507812 C 8.460938 13.875 8.292969 15.402344 7.820312 20.082031 C 7.808594 20.179688 8.0625 20.09375 3.148438 21.058594 C 2.308594 21.226562 1.605469 21.828125 1.316406 22.636719 L 0.140625 25.925781 C -0.15625 26.765625 0.0234375 27.703125 0.613281 28.371094 L 3.773438 31.945312 C 4.445312 32.703125 5.492188 32.972656 6.441406 32.625 C 6.5 32.605469 6.554688 32.644531 6.554688 32.703125 L 6.566406 33.042969 C 6.605469 34.300781 7.597656 35.320312 8.855469 35.398438 C 12.101562 35.609375 10.542969 35.964844 16.597656 33.285156 C 16.625 33.273438 16.65625 33.273438 16.683594 33.292969 C 16.707031 33.308594 16.71875 33.335938 16.71875 33.367188 C 16.664062 34.269531 16.410156 35.683594 17.832031 36.550781 L 17.832031 36.546875 L 17.832031 36.550781 C 20.355469 38.09375 18.816406 37.441406 25.476562 39.625 C 25.503906 39.632812 25.523438 39.652344 25.53125 39.679688 L 26.625 43.269531 C 27.03125 44.605469 28.074219 45 29.4375 45 C 29.558594 45 29.464844 44.515625 30.414062 54.175781 C 30.535156 55.394531 31.546875 56.339844 32.769531 56.378906 Z M 71.558594 36.644531 C 68.070312 39.898438 67.925781 39.890625 67.71875 40.820312 C 66.234375 47.585938 65.75 49.867188 65.609375 50.367188 C 65.574219 50.417969 59.984375 58.476562 59.925781 58.480469 C 51.269531 59.148438 51.625 58.980469 50.847656 59.667969 C 46.722656 63.261719 46.53125 63.234375 46.363281 64.34375 C 45.96875 66.9375 45.792969 68.273438 45.695312 68.636719 L 38.527344 75.902344 C 38.511719 75.917969 38.492188 75.925781 38.46875 75.925781 C 38.445312 75.925781 38.425781 75.917969 38.410156 75.902344 L 33.332031 70.90625 C 33.214844 70.789062 33.078125 70.984375 38.5 66.765625 C 39.304688 66.136719 39.636719 65.074219 39.332031 64.097656 L 38.867188 62.390625 C 38.785156 62.089844 38.585938 61.832031 38.316406 61.675781 C 38.042969 61.519531 37.71875 61.480469 37.417969 61.5625 C 36.789062 61.730469 36.417969 62.378906 36.589844 63.011719 C 36.601562 63.0625 37.0625 64.757812 37.078125 64.808594 C 37.089844 64.84375 37.078125 64.878906 37.050781 64.902344 L 31.890625 68.914062 C 30.722656 69.824219 30.625 71.550781 31.675781 72.589844 L 36.753906 77.585938 C 37.714844 78.53125 39.265625 78.519531 40.210938 77.558594 L 47.375 70.300781 C 48.285156 69.375 48.019531 68.441406 48.699219 64.695312 C 48.984375 64.375 50.160156 63.394531 52.394531 61.449219 C 52.929688 61.351562 55.074219 61.222656 60.105469 60.835938 C 60.835938 60.78125 61.507812 60.398438 61.925781 59.792969 L 67.550781 51.710938 C 67.902344 51.257812 67.792969 51.484375 70.027344 41.324219 C 70.269531 41.042969 71.277344 40.140625 73.171875 38.375 C 73.648438 37.929688 73.675781 37.179688 73.230469 36.703125 C 72.785156 36.226562 72.039062 36.199219 71.558594 36.644531 Z M 79.378906 25.335938 C 79.234375 24.105469 78.1875 23.179688 76.949219 23.179688 L 75.210938 23.179688 C 74.695312 22.832031 72.847656 21.203125 68.433594 17.445312 C 67.476562 16.628906 67.128906 16.84375 60.664062 17.15625 C 60.328125 17.023438 59.125 16.378906 56.53125 15.046875 C 55.953125 14.75 55.238281 14.976562 54.941406 15.558594 C 54.640625 16.136719 54.871094 16.847656 55.453125 17.148438 C 60.03125 19.503906 59.941406 19.558594 60.777344 19.515625 C 64.6875 19.328125 66.347656 19.203125 66.90625 19.246094 C 73.945312 25.234375 74.027344 25.539062 75.097656 25.539062 C 76.964844 25.539062 77.019531 25.492188 77.03125 25.613281 C 77.039062 25.675781 77.625 30.472656 77.582031 30.515625 L 74.929688 33.136719 C 74.179688 33.878906 74.714844 35.15625 75.761719 35.15625 C 76.398438 35.15625 76.378906 35.023438 79.242188 32.195312 C 79.707031 31.734375 79.964844 31.109375 79.96875 30.457031 C 79.96875 30.253906 80.003906 30.597656 79.378906 25.335938 Z M 79.378906 25.335938 "/>
</g>
</svg>
