<?xml version="1.0" encoding="UTF-8"?>
<svg xmlns="http://www.w3.org/2000/svg" xmlns:xlink="http://www.w3.org/1999/xlink" width="29px" height="29px" viewBox="0 0 29 29" version="1.1">
<g id="surface1">
<path style=" stroke:none;fill-rule:nonzero;fill:rgb(100%,100%,100%);fill-opacity:1;" d="M 28.167969 19.765625 L 28.167969 2.96875 C 28.167969 1.425781 26.90625 0.167969 25.367188 0.167969 L 8.566406 0.167969 C 7.027344 0.167969 5.765625 1.425781 5.765625 2.96875 L 5.765625 19.765625 C 5.765625 21.308594 7.027344 22.566406 8.566406 22.566406 L 25.367188 22.566406 C 26.90625 22.566406 28.167969 21.308594 28.167969 19.765625 Z M 12.765625 14.167969 L 15.609375 17.960938 L 19.765625 12.765625 L 25.367188 19.765625 L 8.566406 19.765625 Z M 0.167969 5.765625 L 0.167969 25.367188 C 0.167969 26.90625 1.425781 28.167969 2.96875 28.167969 L 22.566406 28.167969 L 22.566406 25.367188 L 2.96875 25.367188 L 2.96875 5.765625 Z M 0.167969 5.765625 "/>
</g>
</svg>
