<?xml version="1.0" encoding="UTF-8"?>
<svg xmlns="http://www.w3.org/2000/svg" xmlns:xlink="http://www.w3.org/1999/xlink" width="80px" height="px" viewBox="0 0 80 80" version="1.1">
<g id="surface1">
<path style=" stroke:none;fill-rule:nonzero;fill:rgb(0%,0%,0%);fill-opacity:1;" d="M 39.953125 0.00390625 C 38.519531 0.00390625 37.085938 0.0820312 35.660156 0.234375 C 34.355469 0.367188 33.0625 0.585938 31.789062 0.851562 C 31.542969 0.902344 31.296875 0.957031 31.050781 1.015625 C 23.546875 2.722656 16.695312 6.558594 11.316406 12.0625 C 10.816406 12.578125 10.324219 13.105469 9.851562 13.648438 C -4.675781 30.324219 -2.933594 55.621094 13.742188 70.148438 C 29.710938 84.054688 53.742188 83.128906 68.59375 68.035156 C 69.097656 67.519531 69.585938 66.992188 70.0625 66.453125 C 76.472656 59.152344 80.003906 49.765625 80 40.050781 C 80 17.933594 62.070312 0.00390625 39.953125 0.00390625 Z M 13.097656 14.066406 C 13.308594 13.847656 13.527344 13.636719 13.742188 13.425781 C 13.992188 13.179688 14.238281 12.9375 14.492188 12.699219 C 14.714844 12.492188 14.945312 12.289062 15.171875 12.089844 C 15.429688 11.859375 15.6875 11.632812 15.949219 11.410156 C 16.183594 11.214844 16.421875 11.027344 16.660156 10.835938 C 16.925781 10.625 17.191406 10.410156 17.46875 10.203125 C 17.710938 10.023438 17.957031 9.84375 18.207031 9.671875 C 18.484375 9.472656 18.761719 9.269531 19.042969 9.085938 C 19.292969 8.914062 19.546875 8.75 19.804688 8.585938 C 20.089844 8.402344 20.378906 8.222656 20.667969 8.050781 C 21.21875 7.722656 21.777344 7.40625 22.34375 7.101562 C 22.613281 6.957031 22.878906 6.816406 23.148438 6.683594 C 23.449219 6.527344 23.757812 6.378906 24.066406 6.234375 C 24.332031 6.109375 24.609375 5.980469 24.886719 5.859375 C 25.199219 5.726562 25.515625 5.59375 25.835938 5.460938 C 26.109375 5.347656 26.386719 5.234375 26.664062 5.128906 C 26.988281 5.007812 27.316406 4.890625 27.640625 4.777344 C 27.921875 4.679688 28.203125 4.582031 28.484375 4.488281 C 28.816406 4.382812 29.152344 4.285156 29.488281 4.1875 C 29.769531 4.105469 30.046875 4.019531 30.332031 3.945312 C 30.4375 3.917969 30.546875 3.894531 30.65625 3.867188 C 26.703125 7.703125 23.773438 12.464844 22.125 17.71875 C 18.957031 16.882812 15.886719 15.703125 12.976562 14.199219 C 13.023438 14.152344 13.058594 14.105469 13.097656 14.066406 Z M 11.179688 16.214844 C 14.382812 17.953125 17.785156 19.304688 21.308594 20.246094 C 19.582031 26.253906 18.675781 32.464844 18.613281 38.714844 L 2.609375 38.714844 C 2.898438 30.472656 5.914062 22.5625 11.179688 16.214844 Z M 11.179688 63.882812 C 5.914062 57.539062 2.898438 49.625 2.609375 41.382812 L 18.613281 41.382812 C 18.675781 47.632812 19.582031 53.847656 21.308594 59.851562 C 17.785156 60.792969 14.382812 62.148438 11.179688 63.882812 Z M 30.324219 76.160156 C 30.054688 76.089844 29.773438 76.003906 29.496094 75.921875 C 29.160156 75.824219 28.820312 75.722656 28.484375 75.617188 C 28.203125 75.523438 27.925781 75.425781 27.648438 75.332031 C 27.320312 75.21875 26.992188 75.101562 26.667969 74.976562 C 26.390625 74.871094 26.117188 74.761719 25.839844 74.648438 C 25.523438 74.515625 25.203125 74.382812 24.886719 74.246094 C 24.613281 74.128906 24.34375 74.003906 24.074219 73.875 C 23.761719 73.730469 23.453125 73.582031 23.140625 73.425781 C 22.871094 73.292969 22.605469 73.160156 22.339844 73.011719 C 22.039062 72.851562 21.738281 72.6875 21.4375 72.515625 C 21.171875 72.367188 20.917969 72.214844 20.660156 72.058594 C 20.367188 71.882812 20.078125 71.703125 19.789062 71.515625 C 19.535156 71.355469 19.285156 71.191406 19.035156 71.023438 C 18.75 70.828125 18.46875 70.632812 18.1875 70.429688 C 17.945312 70.253906 17.699219 70.082031 17.460938 69.894531 C 17.183594 69.6875 16.910156 69.472656 16.644531 69.257812 C 16.40625 69.070312 16.171875 68.882812 15.941406 68.6875 C 15.675781 68.464844 15.417969 68.234375 15.15625 68.003906 C 14.929688 67.804688 14.703125 67.605469 14.480469 67.398438 C 14.226562 67.164062 13.980469 66.914062 13.730469 66.671875 C 13.515625 66.457031 13.296875 66.25 13.085938 66.03125 C 13.046875 65.988281 13.007812 65.949219 12.972656 65.90625 C 15.882812 64.402344 18.949219 63.222656 22.117188 62.386719 C 23.765625 67.640625 26.699219 72.402344 30.648438 76.238281 C 30.539062 76.210938 30.429688 76.1875 30.324219 76.160156 Z M 38.617188 77.320312 C 32.90625 76.507812 27.898438 70.546875 24.75 61.742188 C 29.304688 60.722656 33.953125 60.175781 38.617188 60.113281 Z M 38.617188 57.441406 C 33.667969 57.507812 28.738281 58.09375 23.910156 59.195312 C 22.234375 53.40625 21.351562 47.414062 21.28125 41.382812 L 38.617188 41.382812 Z M 38.617188 38.714844 L 21.28125 38.714844 C 21.351562 32.6875 22.234375 26.695312 23.910156 20.902344 C 28.738281 22.003906 33.667969 22.59375 38.617188 22.65625 Z M 38.617188 19.988281 C 33.953125 19.921875 29.304688 19.375 24.75 18.355469 C 27.898438 9.550781 32.90625 3.589844 38.617188 2.777344 Z M 68.730469 16.214844 C 73.996094 22.5625 77.007812 30.472656 77.300781 38.714844 L 61.292969 38.714844 C 61.234375 32.464844 60.328125 26.253906 58.597656 20.246094 C 62.121094 19.304688 65.523438 17.953125 68.730469 16.214844 Z M 49.574219 3.9375 C 49.855469 4.007812 50.132812 4.097656 50.410156 4.175781 C 50.75 4.277344 51.089844 4.375 51.421875 4.484375 C 51.703125 4.574219 51.980469 4.671875 52.257812 4.769531 C 52.585938 4.882812 52.914062 5 53.238281 5.121094 C 53.515625 5.226562 53.792969 5.339844 54.066406 5.449219 C 54.386719 5.585938 54.703125 5.71875 55.019531 5.851562 C 55.292969 5.972656 55.5625 6.09375 55.832031 6.222656 C 56.144531 6.371094 56.453125 6.519531 56.769531 6.675781 C 57.035156 6.808594 57.300781 6.941406 57.570312 7.085938 C 57.871094 7.246094 58.167969 7.414062 58.46875 7.585938 C 58.734375 7.730469 58.988281 7.882812 59.246094 8.039062 C 59.539062 8.214844 59.828125 8.398438 60.117188 8.582031 C 60.371094 8.746094 60.625 8.910156 60.875 9.078125 C 61.15625 9.269531 61.4375 9.46875 61.71875 9.667969 C 61.964844 9.84375 62.207031 10.019531 62.449219 10.203125 C 62.722656 10.410156 62.992188 10.625 63.265625 10.839844 C 63.5 11.027344 63.734375 11.214844 63.96875 11.410156 C 64.234375 11.628906 64.492188 11.859375 64.75 12.089844 C 64.976562 12.292969 65.207031 12.492188 65.425781 12.695312 C 65.683594 12.933594 65.929688 13.179688 66.175781 13.425781 C 66.390625 13.636719 66.609375 13.847656 66.820312 14.066406 C 66.859375 14.105469 66.898438 14.148438 66.9375 14.1875 C 64.027344 15.695312 60.957031 16.875 57.789062 17.710938 C 56.140625 12.453125 53.203125 7.695312 49.25 3.859375 C 49.355469 3.886719 49.464844 3.910156 49.574219 3.9375 Z M 41.289062 2.777344 C 47 3.589844 52.007812 9.550781 55.15625 18.355469 C 50.601562 19.375 45.957031 19.921875 41.289062 19.988281 Z M 41.289062 22.65625 C 46.238281 22.59375 51.167969 22.003906 55.996094 20.902344 C 57.671875 26.695312 58.554688 32.6875 58.625 38.714844 L 41.289062 38.714844 Z M 41.289062 41.382812 L 58.625 41.382812 C 58.558594 47.414062 57.671875 53.40625 55.996094 59.195312 C 51.167969 58.09375 46.238281 57.507812 41.289062 57.441406 Z M 41.289062 77.320312 L 41.289062 60.113281 C 45.957031 60.175781 50.601562 60.722656 55.15625 61.742188 C 52.007812 70.546875 47 76.507812 41.289062 77.320312 Z M 66.808594 66.03125 C 66.597656 66.25 66.382812 66.460938 66.167969 66.671875 C 65.917969 66.917969 65.671875 67.164062 65.414062 67.402344 C 65.195312 67.609375 64.964844 67.800781 64.738281 68.007812 C 64.480469 68.238281 64.222656 68.46875 63.957031 68.6875 C 63.722656 68.882812 63.484375 69.074219 63.25 69.261719 C 62.980469 69.476562 62.714844 69.6875 62.441406 69.894531 C 62.195312 70.078125 61.949219 70.253906 61.703125 70.429688 C 61.425781 70.625 61.148438 70.828125 60.867188 71.011719 C 60.613281 71.183594 60.359375 71.351562 60.101562 71.511719 C 59.816406 71.695312 59.53125 71.875 59.238281 72.046875 C 58.972656 72.203125 58.71875 72.355469 58.453125 72.503906 C 57.898438 72.824219 57.332031 73.125 56.761719 73.417969 C 56.457031 73.570312 56.148438 73.71875 55.839844 73.863281 C 55.574219 73.988281 55.296875 74.117188 55.023438 74.238281 C 54.707031 74.371094 54.390625 74.503906 54.074219 74.636719 C 53.796875 74.75 53.523438 74.863281 53.242188 74.96875 C 52.917969 75.089844 52.589844 75.207031 52.261719 75.320312 C 51.984375 75.417969 51.707031 75.515625 51.425781 75.605469 C 51.09375 75.714844 50.757812 75.8125 50.417969 75.910156 C 50.140625 75.992188 49.859375 76.078125 49.578125 76.152344 C 49.46875 76.179688 49.359375 76.203125 49.253906 76.230469 C 53.203125 72.394531 56.136719 67.632812 57.785156 62.378906 C 60.953125 63.214844 64.019531 64.394531 66.929688 65.898438 C 66.886719 65.945312 66.847656 65.992188 66.808594 66.03125 Z M 68.730469 63.882812 C 65.523438 62.144531 62.121094 60.792969 58.597656 59.851562 C 60.328125 53.847656 61.234375 47.632812 61.292969 41.382812 L 77.300781 41.382812 C 77.007812 49.625 73.996094 57.539062 68.730469 63.882812 Z M 68.730469 63.882812 "/>
</g>
</svg>
