<svg width="29" height="29" viewBox="0 0 29 29" version="1.1" xmlns="http://www.w3.org/2000/svg" xmlns:xlink="http://www.w3.org/1999/xlink">
  <g id="Canvas" fill="none">
    <path id="Vector" d="M 28 19.6L 28 2.8C 28 1.26 26.74 0 25.2 0L 8.4 0C 6.86 0 5.6 1.26 5.6 2.8L 5.6 19.6C 5.6 21.14 6.86 22.4 8.4 22.4L 25.2 22.4C 26.74 22.4 28 21.14 28 19.6ZM 12.6 14L 15.442 17.794L 19.6 12.6L 25.2 19.6L 8.4 19.6L 12.6 14ZM 0 5.6L 0 25.2C 0 26.74 1.26 28 2.8 28L 22.4 28L 22.4 25.2L 2.8 25.2L 2.8 5.6L 0 5.6Z" transform="translate(0.166504 0.166626)" fill="#828282"/>
  </g>
</svg>
